<?xml version="1.0" encoding="UTF-8" standalone="no"?>
<!DOCTYPE svg PUBLIC "-//W3C//DTD SVG 1.1//EN" "http://www.w3.org/Graphics/SVG/1.1/DTD/svg11.dtd">
<svg version="1.1" xmlns="http://www.w3.org/2000/svg" xmlns:xlink="http://www.w3.org/1999/xlink" preserveAspectRatio="xMidYMid meet" viewBox="39 -1 564 644" width="560" height="640"><defs><path d="M480 160C480 71.63 408.38 0 320 0C231.63 0 160 71.63 160 160C160 248.38 231.63 320 320 320C408.38 320 480 248.38 480 160ZM411.13 360C383.38 372.75 352.5 380 320 380C287.5 380 256.75 372.75 228.88 360C226.79 360 210.09 360 208 360C115.25 360 40 435.25 40 528C40 533.2 40 574.8 40 580C40 613.13 66.88 640 100 640C144 640 496 640 540 640C573.13 640 600 613.13 600 580C600 574.8 600 533.2 600 528C600 435.25 524.75 360 432 360C427.83 360 413.21 360 411.13 360Z" id="bghmqnaa6"></path></defs><g><g><use xlink:href="#bghmqnaa6" opacity="1" fill="#ffe16b" fill-opacity="1"></use><g><use xlink:href="#bghmqnaa6" opacity="1" fill-opacity="0" stroke="#000000" stroke-width="1" stroke-opacity="0"></use></g></g></g></svg>