<?xml version="1.0" encoding="UTF-8" standalone="no"?>
<!DOCTYPE svg PUBLIC "-//W3C//DTD SVG 1.1//EN" "http://www.w3.org/Graphics/SVG/1.1/DTD/svg11.dtd">
<svg version="1.1" xmlns="http://www.w3.org/2000/svg" xmlns:xlink="http://www.w3.org/1999/xlink" preserveAspectRatio="xMidYMid meet" viewBox="0 0 640 640" width="640" height="640"><defs><path d="M80.42 405.73L560.75 405.73L560.75 518.84L80.42 518.84L80.42 405.73Z" id="b1UWCqZqIs"></path><path d="M518.78 314.34C518.78 422.23 428.06 509.83 316.32 509.83C204.58 509.83 113.86 422.23 113.86 314.34C113.86 206.44 204.58 118.84 316.32 118.84C428.06 118.84 518.78 206.44 518.78 314.34Z" id="a2738eieh5"></path><path d="M534.1 389.37C541.69 366.7 545.49 343.02 545.41 318.69C545.23 259.7 522.07 204.31 480.22 162.73C438.38 121.15 382.84 98.35 323.85 98.54C322.84 98.54 314.81 98.57 313.81 98.57C254.81 98.76 199.42 121.91 157.84 163.76C116.26 205.61 93.46 261.15 93.65 320.14C93.73 344.46 97.69 368.12 105.42 390.74C102.64 390.75 88.75 390.79 63.76 390.87L64.24 541.46L576.24 539.82L575.76 389.23C553.54 389.31 539.65 389.35 534.1 389.37ZM313.9 128.69C314.91 128.69 322.94 128.66 323.94 128.66C429.12 128.32 514.96 213.61 515.3 318.79C515.37 343.28 510.9 367.01 502.01 389.47C497.4 389.48 460.46 389.6 455.85 389.62C451.97 369.69 443.09 350.89 429.92 335.19C415.8 318.35 397.64 305.95 377.44 298.9C392.81 283.9 402.34 262.96 402.27 239.83C402.12 194.48 365.11 157.71 319.76 157.85C274.41 158 237.63 195.01 237.78 240.36C237.85 263.33 247.39 284.09 262.68 298.97C242.43 306.02 224.21 318.44 210.08 335.29C210.04 335.33 209.79 335.64 209.75 335.68C196.48 351.5 187.58 370.42 183.74 390.49C179.12 390.5 142.13 390.62 137.51 390.64C128.47 368.24 123.85 344.54 123.77 320.04C123.43 214.87 208.73 129.03 313.9 128.69ZM267.9 240.26C267.81 211.52 291.11 188.06 319.86 187.97C348.6 187.88 372.06 211.19 372.15 239.93C372.25 268.67 348.94 292.13 320.19 292.22C291.45 292.32 267.99 269.01 267.9 240.26ZM406.84 354.54C415.47 364.83 421.63 376.88 424.99 389.72C403.95 389.79 235.66 390.32 214.62 390.39C217.97 377.49 224.15 365.38 232.83 355.03C232.86 355 233.12 354.69 233.16 354.65C250.28 334.24 275.37 322.49 302.01 322.4C304.37 322.39 316.17 322.36 337.4 322.29C372.19 330.07 395.33 340.82 406.84 354.54ZM546.03 509.8L94.26 511.25L93.97 420.89L545.74 419.45L546.03 509.8Z" id="bjjixiblq"></path><path d="M304.47 450.29L334.59 450.29L334.59 480.41L304.47 480.41L304.47 450.29Z" id="a3pfBZfV5r"></path><path d="M229.18 450.29L259.3 450.29L259.3 480.41L229.18 480.41L229.18 450.29Z" id="bjeeNkxRI"></path><path d="M153.89 450.29L184 450.29L184 480.41L153.89 480.41L153.89 450.29Z" id="cBVSDiptZ"></path><path d="M379.77 450.29L409.89 450.29L409.89 480.41L379.77 480.41L379.77 450.29Z" id="e4jcADsjlz"></path><path d="M455.06 450.29L485.18 450.29L485.18 480.41L455.06 480.41L455.06 450.29Z" id="b2Vaa0BFAj"></path></defs><g><g><g><use xlink:href="#b1UWCqZqIs" opacity="1" fill="#ffe16b" fill-opacity="1"></use></g><g><use xlink:href="#a2738eieh5" opacity="1" fill="#ffe16b" fill-opacity="1"></use></g><g><use xlink:href="#bjjixiblq" opacity="1" fill="#ffffff" fill-opacity="1"></use><g><use xlink:href="#bjjixiblq" opacity="1" fill-opacity="0" stroke="#000000" stroke-width="1" stroke-opacity="0"></use></g></g><g><use xlink:href="#a3pfBZfV5r" opacity="1" fill="#ffffff" fill-opacity="1"></use><g><use xlink:href="#a3pfBZfV5r" opacity="1" fill-opacity="0" stroke="#000000" stroke-width="1" stroke-opacity="0"></use></g></g><g><use xlink:href="#bjeeNkxRI" opacity="1" fill="#ffffff" fill-opacity="1"></use><g><use xlink:href="#bjeeNkxRI" opacity="1" fill-opacity="0" stroke="#000000" stroke-width="1" stroke-opacity="0"></use></g></g><g><use xlink:href="#cBVSDiptZ" opacity="1" fill="#ffffff" fill-opacity="1"></use><g><use xlink:href="#cBVSDiptZ" opacity="1" fill-opacity="0" stroke="#000000" stroke-width="1" stroke-opacity="0"></use></g></g><g><use xlink:href="#e4jcADsjlz" opacity="1" fill="#ffffff" fill-opacity="1"></use><g><use xlink:href="#e4jcADsjlz" opacity="1" fill-opacity="0" stroke="#000000" stroke-width="1" stroke-opacity="0"></use></g></g><g><use xlink:href="#b2Vaa0BFAj" opacity="1" fill="#ffffff" fill-opacity="1"></use><g><use xlink:href="#b2Vaa0BFAj" opacity="1" fill-opacity="0" stroke="#000000" stroke-width="1" stroke-opacity="0"></use></g></g></g></g></svg>